<svg xmlns="http://www.w3.org/2000/svg" xmlns:xlink="http://www.w3.org/1999/xlink" width="20.32" height="17.188" viewBox="0 0 20.32 17.188">
  <defs>
    <style>
      .cls-1 {
        fill-rule: evenodd;
        filter: url(#filter);
      }
    </style>
    <filter id="filter" x="1475.34" y="91.906" width="20.32" height="17.188" filterUnits="userSpaceOnUse">
      <feFlood result="flood" flood-color="#363636"/>
      <feComposite result="composite" operator="in" in2="SourceGraphic"/>
      <feBlend result="blend" in2="SourceGraphic"/>
    </filter>
  </defs>
  <path id="icon" class="cls-1" d="M1490.97,107.539a1.565,1.565,0,1,0,.46-1.107A1.531,1.531,0,0,0,1490.97,107.539Zm4.47-13.847a0.763,0.763,0,0,0-.55-0.233h-14.68c-0.01-.056-0.03-0.16-0.06-0.312s-0.05-.271-0.06-0.36a2.175,2.175,0,0,0-.1-0.324,0.9,0.9,0,0,0-.15-0.3,0.961,0.961,0,0,0-.25-0.19,0.751,0.751,0,0,0-.35-0.079h-3.13a0.782,0.782,0,0,0,0,1.564h2.5l2.16,10.059c-0.02.033-.1,0.187-0.25,0.464s-0.27.519-.36,0.727a1.369,1.369,0,0,0-.14.483,0.808,0.808,0,0,0,.79.783h12.51a0.747,0.747,0,0,0,.55-0.233,0.773,0.773,0,0,0,0-1.1,0.75,0.75,0,0,0-.55-0.232h-11.24a2.457,2.457,0,0,0,.29-0.782,1.341,1.341,0,0,0-.03-0.269c-0.02-.1-0.04-0.206-0.07-0.324s-0.05-.2-0.06-0.263l12.76-1.49a0.765,0.765,0,0,0,.5-0.263,0.778,0.778,0,0,0,.2-0.52V94.242A0.768,0.768,0,0,0,1495.44,93.692Zm-15.42,13.847a1.565,1.565,0,1,0,.46-1.107A1.531,1.531,0,0,0,1480.02,107.539Z" transform="translate(-1475.34 -91.906)"/>
</svg>
