<svg xmlns="http://www.w3.org/2000/svg" xmlns:xlink="http://www.w3.org/1999/xlink" width="19.03" height="16" viewBox="0 0 19.03 16">
  <defs>
    <style>
      .cls-1 {
        fill-rule: evenodd;
        filter: url(#filter);
      }
    </style>
    <filter id="filter" x="1048.97" y="14" width="19.03" height="16" filterUnits="userSpaceOnUse">
      <feFlood result="flood" flood-color="#555"/>
      <feComposite result="composite" operator="in" in2="SourceGraphic"/>
      <feBlend result="blend" in2="SourceGraphic"/>
    </filter>
  </defs>
  <path id="icon" class="cls-1" d="M1066.95,15.067a3.431,3.431,0,0,0-2.52-1.054h-3.97a0.37,0.37,0,0,0-.25.081,0.419,0.419,0,0,0-.12.244,1.719,1.719,0,0,0-.04.294c0,0.087,0,.2.01,0.331s0.01,0.216.01,0.25a0.352,0.352,0,0,1,.02.169,0.106,0.106,0,0,0,.09.112,0.148,0.148,0,0,1,.1.069,0.193,0.193,0,0,0,.14.037l0.14,0.012h3.87a1.9,1.9,0,0,1,1.4.587,1.921,1.921,0,0,1,.58,1.41v8.788a1.92,1.92,0,0,1-.58,1.41,1.9,1.9,0,0,1-1.4.587h-3.97a0.373,0.373,0,0,0-.25.081,0.418,0.418,0,0,0-.12.244,1.71,1.71,0,0,0-.04.293c0,0.087,0,.2.01,0.331s0.01,0.217.01,0.25a0.381,0.381,0,0,0,.12.281,0.36,0.36,0,0,0,.27.119h3.97a3.429,3.429,0,0,0,2.52-1.055,3.47,3.47,0,0,0,1.05-2.54V17.607A3.471,3.471,0,0,0,1066.95,15.067ZM1063.64,22a0.765,0.765,0,0,0-.24-0.562l-6.74-6.79a0.762,0.762,0,0,0-.56-0.237,0.778,0.778,0,0,0-.56.237,0.794,0.794,0,0,0-.23.562v3.595h-5.55a0.815,0.815,0,0,0-.8.8V24.4a0.815,0.815,0,0,0,.8.8h5.55v3.595a0.794,0.794,0,0,0,.23.562,0.779,0.779,0,0,0,.56.237,0.763,0.763,0,0,0,.56-0.237l6.74-6.79A0.765,0.765,0,0,0,1063.64,22Z" transform="translate(-1048.97 -14)"/>
</svg>
