<svg xmlns="http://www.w3.org/2000/svg" xmlns:xlink="http://www.w3.org/1999/xlink" width="15" height="15" viewBox="0 0 15 15">
  <defs>
    <style>
      .cls-1 {
        fill-rule: evenodd;
        filter: url(#filter);
      }
    </style>
    <filter id="filter" x="375" y="14" width="15" height="15" filterUnits="userSpaceOnUse">
      <feFlood result="flood" flood-color="#555"/>
      <feComposite result="composite" operator="in" in2="SourceGraphic"/>
      <feBlend result="blend" in2="SourceGraphic"/>
    </filter>
  </defs>
  <path id="icon" class="cls-1" d="M383,14.016V14h-1v0.017A7.5,7.5,0,0,0,375.017,21H375v1h0.017A7.5,7.5,0,0,0,382,28.982V29h1V28.982A7.5,7.5,0,0,0,389.982,22H390V21h-0.018A7.5,7.5,0,0,0,383,14.016ZM379.7,15.634A7.955,7.955,0,0,0,378.519,18h-1.5A6.535,6.535,0,0,1,379.7,15.634ZM376.5,19h1.758a11.875,11.875,0,0,0-.246,2h-1.991A6.444,6.444,0,0,1,376.5,19Zm-0.479,3h1.991a11.879,11.879,0,0,0,.246,2H376.5A6.452,6.452,0,0,1,376.019,22Zm1,3h1.5a7.93,7.93,0,0,0,1.177,2.366A6.53,6.53,0,0,1,377.021,25ZM382,27.935c-1.028-.275-1.913-1.379-2.45-2.936H382v2.936ZM382,24h-2.731a11.19,11.19,0,0,1-.259-2H382v2Zm0-3h-2.99a11.177,11.177,0,0,1,.259-2H382v2Zm0-3h-2.45c0.537-1.557,1.422-2.661,2.45-2.935V18Zm5.978,0h-1.5a7.956,7.956,0,0,0-1.177-2.365A6.532,6.532,0,0,1,387.978,18ZM383,15.064c1.027,0.274,1.913,1.378,2.45,2.935H383V15.064ZM383,19h2.73a11.175,11.175,0,0,1,.26,2H383V19Zm0,3h2.99a11.1,11.1,0,0,1-.26,2H383V22Zm0,5.935V25h2.45C384.913,26.556,384.027,27.66,383,27.935Zm2.305-.57A7.977,7.977,0,0,0,386.482,25h1.5A6.528,6.528,0,0,1,385.305,27.364ZM388.5,24h-1.758a11.879,11.879,0,0,0,.246-2h1.99A6.423,6.423,0,0,1,388.5,24Zm-1.512-3a11.875,11.875,0,0,0-.246-2H388.5a6.415,6.415,0,0,1,.478,2h-1.99Z" transform="translate(-375 -14)"/>
</svg>
